<svg width="300" height="200" viewBox="0 0 300 200" xmlns="http://www.w3.org/2000/svg">
  <!-- Shipping Container -->
  <rect x="50" y="50" width="200" height="100" fill="#0ea5e9" stroke="#0284c7" stroke-width="3" rx="2"/>
  
  <!-- Container Lines -->
  <line x1="100" y1="50" x2="100" y2="150" stroke="#0284c7" stroke-width="2"/>
  <line x1="150" y1="50" x2="150" y2="150" stroke="#0284c7" stroke-width="2"/>
  <line x1="200" y1="50" x2="200" y2="150" stroke="#0284c7" stroke-width="2"/>
  
  <!-- Container Door Handles -->
  <circle cx="220" cy="100" r="3" fill="#0284c7"/>
  <circle cx="230" cy="100" r="3" fill="#0284c7"/>
  
  <!-- Container Corner Castings -->
  <rect x="45" y="45" width="10" height="10" fill="#0284c7"/>
  <rect x="245" y="45" width="10" height="10" fill="#0284c7"/>
  <rect x="45" y="145" width="10" height="10" fill="#0284c7"/>
  <rect x="245" y="145" width="10" height="10" fill="#0284c7"/>
  
  <!-- Shipping Lines -->
  <line x1="50" y1="60" x2="250" y2="60" stroke="#0284c7" stroke-width="1" opacity="0.5"/>
  <line x1="50" y1="80" x2="250" y2="80" stroke="#0284c7" stroke-width="1" opacity="0.5"/>
  <line x1="50" y1="100" x2="250" y2="100" stroke="#0284c7" stroke-width="1" opacity="0.5"/>
  <line x1="50" y1="120" x2="250" y2="120" stroke="#0284c7" stroke-width="1" opacity="0.5"/>
  <line x1="50" y1="140" x2="250" y2="140" stroke="#0284c7" stroke-width="1" opacity="0.5"/>
</svg>
