<svg width="250" height="100" viewBox="0 0 250 100" xmlns="http://www.w3.org/2000/svg">
  <!-- Circular Emblem -->
  <g>
    <!-- Outer Circle (Reddish-brown border) -->
    <circle cx="50" cy="50" r="38" fill="#8B1A1A" stroke="#8B1A1A" stroke-width="4"/>
    <!-- Inner Circle (Dark blue background) -->
    <circle cx="50" cy="50" r="32" fill="#0c4a6e"/>
    
    <!-- Shipping Icons (White silhouettes) -->
    <!-- Cargo Ship -->
    <path d="M 25 55 L 30 50 L 40 50 L 45 52 L 50 50 L 55 52 L 60 50 L 65 52 L 70 50 L 70 60 L 25 60 Z" fill="white" opacity="0.95"/>
    <rect x="30" y="50" width="15" height="3" fill="white" opacity="0.9"/>
    <rect x="50" y="50" width="15" height="3" fill="white" opacity="0.9"/>
    
    <!-- Semi-Truck -->
    <rect x="35" y="52" width="12" height="8" fill="white" opacity="0.85"/>
    <rect x="47" y="54" width="8" height="6" fill="white" opacity="0.85"/>
    <circle cx="40" cy="62" r="2" fill="white" opacity="0.9"/>
    <circle cx="52" cy="62" r="2" fill="white" opacity="0.9"/>
    
    <!-- Airplane -->
    <path d="M 55 35 L 58 38 L 60 40 L 58 42 L 55 40 Z" fill="white" opacity="0.9"/>
    <path d="M 60 40 L 65 38 L 63 40 L 60 42 Z" fill="white" opacity="0.9"/>
    <line x1="58" y1="40" x2="60" y2="40" stroke="white" stroke-width="1" opacity="0.9"/>
    
    <!-- TIL Text -->
    <text x="50" y="68" font-family="Arial, sans-serif" font-size="14" font-weight="bold" fill="white" text-anchor="middle">TIL</text>
    
    <!-- "RELIBLE SHIPPING PARTNER" text around border -->
    <path id="arc" d="M 15 50 A 35 35 0 0 1 85 50" fill="none"/>
    <text font-family="Arial, sans-serif" font-size="7" fill="white" font-weight="bold">
      <textPath href="#arc" startOffset="10%">RELIBLE SHIPPING PARTNER</textPath>
    </text>
  </g>
  
  <!-- Company Name Text -->
  <text x="110" y="30" font-family="Georgia, serif" font-size="28" font-weight="bold" fill="#0c4a6e">TRANSCOM</text>
  <text x="110" y="50" font-family="Arial, sans-serif" font-size="11" fill="#0c4a6e" letter-spacing="2px" font-weight="600">INTERNATIONAL</text>
  <text x="110" y="68" font-family="Arial, sans-serif" font-size="11" fill="#0c4a6e" letter-spacing="2px" font-weight="600">SHIPPING &amp; LOGISTICS</text>
</svg>
